<?xml version="1.0" encoding="UTF-8" standalone="no"?><svg xmlns="http://www.w3.org/2000/svg" xmlns:xlink="http://www.w3.org/1999/xlink" fill="#000000" height="258.6" preserveAspectRatio="xMidYMid meet" version="1" viewBox="81.0 83.3 263.1 258.6" width="263.1" zoomAndPan="magnify"><g id="change1_1"><path d="M212.609,83.315c-0.003,0-0.007,0-0.01,0c-28.631-0.002-54.597,11.62-73.355,30.385 c-18.765,18.758-30.388,44.725-30.385,73.357v60.119h0.001c0.054-7.234,3.025-13.823,7.777-18.567 c0.702-0.703,1.443-1.367,2.222-1.987v-39.565c0.002-25.902,10.485-49.306,27.457-66.285c16.979-16.972,40.383-27.454,66.284-27.457 c25.902,0.002,49.307,10.485,66.287,27.457c16.971,16.979,27.454,40.383,27.457,66.285v39.565c0.778,0.621,1.52,1.285,2.221,1.987 c4.752,4.744,7.724,11.333,7.777,18.567h0.001v-60.119c0.003-28.632-11.62-54.599-30.385-73.357 C267.201,94.938,241.237,83.315,212.609,83.315" fill="#ffffff"/></g><g id="change2_1"><path d="M316.342,247.176v0.21l0,0v9.96c4.291,0.958,8.113,3.123,11.127,6.131c4.135,4.144,6.678,9.815,6.681,16.128 c-0.002,6.315-2.545,11.986-6.681,16.128c-3.013,3.01-6.836,5.175-11.127,6.132v10.17c7.055-1.082,13.39-4.414,18.199-9.23 c5.929-5.921,9.611-14.156,9.609-23.2c0.002-9.043-3.68-17.276-9.609-23.198C329.731,251.591,323.396,248.257,316.342,247.176" fill="#ffffff"/></g><g id="change3_1"><path d="M316.341,247.176c0,0.07,0.001,0.14,0.001,0.21L316.341,247.176L316.341,247.176" fill="#ffffff"/></g><g id="change2_2"><path d="M108.858,247.176c-7.056,1.081-13.391,4.415-18.199,9.231c-5.93,5.922-9.611,14.155-9.61,23.198 c-0.001,9.044,3.68,17.279,9.61,23.2c4.809,4.816,11.144,8.149,18.199,9.23v-10.17c-4.292-0.958-8.114-3.123-11.127-6.132 c-4.137-4.142-6.679-9.813-6.681-16.128c0.001-6.313,2.544-11.985,6.681-16.128c3.014-3.008,6.836-5.174,11.127-6.131V247.176" fill="#ffffff"/></g><g id="change3_2"><path d="M108.859,247.176L108.859,247.176l-0.001,10.17l0,0v-9.96C108.858,247.316,108.859,247.246,108.859,247.176" fill="#ffffff"/></g><g id="change2_3"><path d="M316.342,312.036c-1.631,0.25-3.302,0.38-5,0.379h-4.999v2.913h4.999h5l0,0l0,0V312.036 M316.342,257.347 v0.561h-10v44.507h4.999c1.72-0.001,3.394-0.19,5-0.549V257.347L316.342,257.347 M289.791,220.831c-0.001,0-0.003,0-0.005,0 c-7.318-0.001-13.987,2.98-18.777,7.778c-4.798,4.79-7.78,11.461-7.778,18.777v67.942c-0.001,7.318,2.98,13.987,7.778,18.777 c4.788,4.796,11.454,7.778,18.767,7.778c0.004,0,0.007,0,0.01,0c7.318,0.003,13.987-2.98,18.777-7.778 c4.798-4.79,7.781-11.459,7.778-18.777h-5h-4.999c-0.003,4.588-1.846,8.694-4.849,11.706c-3.013,3.004-7.119,4.847-11.707,4.85 c-4.588-0.003-8.694-1.846-11.706-4.849c-3.005-3.013-4.848-7.119-4.849-11.707v-67.942c0.001-4.588,1.844-8.694,4.849-11.706 c3.011-3.004,7.118-4.847,11.706-4.849c4.588,0.002,8.694,1.845,11.707,4.849c3.003,3.012,4.846,7.118,4.849,11.706v-20.765 C301.807,223.003,296.034,220.831,289.791,220.831" fill="#ffffff"/></g><g id="change3_3"><path d="M311.341,256.798h-4.999v1.109h10v-0.561C314.734,256.988,313.062,256.799,311.341,256.798 M306.342,226.622 v20.765l0,0v-0.589h4.999c0.004,0,0.006,0,0.01,0c1.695,0,3.361,0.129,4.989,0.379c-0.054-7.234-3.025-13.823-7.777-18.567 C307.862,227.907,307.12,227.243,306.342,226.622" fill="#ffffff"/></g><g id="change4_1"><path d="M316.342,301.866c-1.607,0.359-3.28,0.548-5,0.549h-4.999v10.001h4.999c1.699,0,3.369-0.129,5-0.379V301.866" fill="#ffffff"/></g><g id="change5_1"><path d="M311.352,246.797c-0.004,0-0.006,0-0.01,0h-4.999v0.589l0,0v9.412h4.999c1.721,0,3.393,0.189,5,0.548v-9.96 c0-0.07,0-0.141-0.001-0.21C314.713,246.927,313.046,246.797,311.352,246.797" fill="#ffffff"/></g><g id="change2_4"><path d="M135.419,220.831c-0.001,0-0.003,0-0.005,0c-6.246-0.001-12.02,2.17-16.556,5.791v20.175v10.001v1.109h-10 v43.959c1.607,0.358,3.28,0.547,5,0.548h5v10.001h-5c-0.002,0-0.003,0-0.005,0c-1.697,0-3.366-0.129-4.996-0.379v3.292 c-0.003,7.318,2.98,13.987,7.778,18.777c4.788,4.796,11.454,7.778,18.768,7.778c0.003,0,0.006,0,0.01,0 c7.318,0.003,13.987-2.98,18.777-7.778c4.798-4.79,7.78-11.459,7.778-18.777h-5h-5c-0.001,4.588-1.844,8.694-4.849,11.706 c-3.012,3.004-7.118,4.847-11.706,4.85c-4.587-0.003-8.694-1.846-11.707-4.85c-3.003-3.012-4.846-7.118-4.849-11.706v-67.942 c0.002-4.588,1.845-8.694,4.849-11.706c3.012-3.004,7.12-4.847,11.707-4.849c4.588,0.002,8.694,1.844,11.706,4.849 c3.004,3.012,4.847,7.118,4.849,11.706v67.942h5h5l0,0l0,0v-67.942c0.001-7.316-2.98-13.987-7.778-18.777 C149.403,223.812,142.735,220.831,135.419,220.831" fill="#ffffff"/></g><g id="change3_4"><path d="M118.858,256.798h-5c-1.72,0-3.394,0.189-5,0.548v0.561h10V256.798 M118.858,226.622 c-0.778,0.621-1.52,1.285-2.222,1.987c-4.752,4.744-7.724,11.333-7.777,18.567c1.631-0.25,3.301-0.379,5-0.379h5V226.622" fill="#ffffff"/></g><g id="change4_2"><path d="M108.858,301.866v10.17c1.63,0.25,3.299,0.379,4.996,0.379c0.002,0,0.003,0,0.005,0h5v-10.001h-5 C112.138,302.414,110.465,302.225,108.858,301.866" fill="#ffffff"/></g><g id="change5_2"><path d="M118.858,246.797h-5c-1.698,0-3.368,0.129-5,0.379c0,0.07-0.001,0.14-0.001,0.21v9.96 c1.607-0.359,3.28-0.548,5-0.548h5v-3.892V246.797" fill="#ffffff"/></g></svg>