<?xml version="1.0" encoding="UTF-8" standalone="no"?><svg xmlns="http://www.w3.org/2000/svg" xmlns:xlink="http://www.w3.org/1999/xlink" fill="#000000" height="289.1" preserveAspectRatio="xMidYMid meet" version="1" viewBox="90.4 68.1 244.5 289.1" width="244.5" zoomAndPan="magnify"><g id="change1_1"><path d="M223.656,288.791L223.656,288.791L223.656,288.791 M223.658,234.354h-10.003v54.438h5.001h5l0,0l0,0v-54.438 M152.014,143.84c-16.4,1.218-31.181,8.385-42.123,19.334c-12.052,12.044-19.522,28.735-19.52,47.122v78.495 c-0.003,18.387,7.468,35.08,19.52,47.123c12.043,12.049,28.73,19.52,47.113,19.52c0.004,0,0.007,0,0.01,0 c18.386,0.003,35.078-7.468,47.123-19.52c12.052-12.043,19.522-28.736,19.52-47.123h-5h-5.001 c-0.003,15.657-6.332,29.786-16.59,40.053c-10.267,10.258-24.396,16.588-40.052,16.59c-15.657-0.002-29.785-6.332-40.052-16.59 c-10.259-10.267-16.589-24.396-16.591-40.053v-54.438h-10v-10.001h10v-14.057c0.002-15.656,6.332-29.784,16.591-40.051 c9.159-9.153,21.397-15.179,35.052-16.372V143.84 M162.014,143.84v10.033c13.652,1.193,25.891,7.219,35.052,16.372 c10.258,10.267,16.587,24.395,16.59,40.051v14.057h10.003l-0.002-14.057c0.003-18.387-7.468-35.078-19.52-47.122 C193.193,152.224,178.414,145.057,162.014,143.84" fill="#ffffff"/></g><g id="change1_2"><path d="M157.014,153.654c-1.686,0.001-3.353,0.074-5,0.219v31.234c1.602-0.411,3.277-0.63,5-0.629 c0.004,0,0.008,0,0.011,0c1.719,0,3.392,0.219,4.989,0.629v-31.234C160.366,153.729,158.699,153.655,157.014,153.654 M237.32,68.057 c-0.002,0-0.002,0-0.004,0h-21.303c-17.658-0.003-33.69,7.17-45.256,18.744c-11.572,11.566-18.746,27.598-18.744,45.255v11.784 c1.652-0.123,3.318-0.186,5-0.185c0.004,0,0.008,0,0.011,0c1.678,0,3.342,0.063,4.989,0.185v-11.784 c0.002-14.928,6.035-28.396,15.814-38.184c9.789-9.78,23.258-15.813,38.186-15.816h21.303c14.928,0.002,28.408,6.04,38.199,15.737 c9.785,9.706,15.801,22.993,15.801,37.513v142.64h10v-142.64c0-17.316-7.191-33.153-18.761-44.614 C270.994,75.225,254.978,68.057,237.32,68.057" fill="#ffffff"/></g><g id="change2_1"><path d="M157.024,143.655c-0.003,0-0.007,0-0.011,0c-1.682-0.001-3.348,0.062-5,0.185v10.033 c1.647-0.145,3.314-0.218,5-0.219c1.686,0.001,3.353,0.074,5,0.219V143.84C160.366,143.718,158.702,143.655,157.024,143.655" fill="#ffffff"/></g><g id="change3_1"><path d="M177.098,236.854L177.098,236.854L177.098,236.854 M146.932,234.354h-10v2.5 c-0.003,5.529,2.256,10.582,5.881,14.2c3.616,3.624,8.664,5.882,14.191,5.882c0.004,0,0.007,0,0.01,0 c5.53,0.003,10.582-2.255,14.201-5.882c3.627-3.618,5.885-8.67,5.883-14.2h-5h-5c-0.003,2.799-1.121,5.288-2.953,7.129 c-1.842,1.833-4.33,2.951-7.131,2.954c-2.801-0.003-5.289-1.121-7.13-2.954c-1.831-1.841-2.95-4.33-2.952-7.129V234.354 M162.014,185.107v4.371v5h-5c2.801,0.002,5.289,1.121,7.131,2.952c1.832,1.842,2.95,4.329,2.953,7.129v32.294h5h5l0,0l0,0v-2.5h-10 v-10.001h10V204.56c0.002-5.529-2.256-10.582-5.883-14.2C168.723,187.863,165.552,186.016,162.014,185.107 M152.014,185.107 c-3.539,0.908-6.709,2.756-9.201,5.253c-3.625,3.619-5.884,8.67-5.881,14.199v19.793h10V204.56c0.002-2.8,1.121-5.289,2.952-7.129 c1.841-1.831,4.329-2.95,7.13-2.952h-5V185.107" fill="#ffffff"/></g><g id="change4_1"><path d="M157.024,184.479c-0.003,0-0.007,0-0.011,0c-1.723-0.001-3.398,0.218-5,0.629v9.371h5l0,0l0,0h5v-5v-4.371 C160.416,184.697,158.743,184.479,157.024,184.479" fill="#ffffff"/></g><g id="change3_2"><path d="M136.932 224.353L100.371 224.353 100.371 234.354 136.932 234.354 136.932 224.353" fill="#ffffff"/></g><g id="change4_2"><path d="M100.371 224.353L90.371 224.353 90.371 234.354 100.371 234.354 100.371 224.353" fill="#ffffff"/></g><g id="change5_1"><path d="M146.932 224.353L136.932 224.353 136.932 234.354 146.932 234.354 146.932 224.353" fill="#ffffff"/></g><g id="change3_3"><path d="M213.655,224.353h-36.558v10.001h36.558V224.353 M223.658,224.353L223.658,224.353l-0.002,10.001h0.002 V224.353" fill="#ffffff"/></g><g id="change4_3"><path d="M223.658 224.353L213.655 224.353 213.655 234.354 223.658 234.354 223.656 224.353" fill="#ffffff"/></g><g id="change5_2"><path d="M177.098 224.353L167.098 224.353 167.098 234.354 177.098 234.354 177.098 224.353" fill="#ffffff"/></g><g id="change3_4"><path d="M272.576,324.043l-0.001,28.102c0,1.316,0.534,2.604,1.466,3.535c0.931,0.931,2.219,1.466,3.535,1.466h37.48 c1.316,0,2.604-0.535,3.535-1.466c0.932-0.931,1.465-2.219,1.465-3.535l-0.002-28.102c-1.679,0.457-3.443,0.701-5.26,0.699h-4.74 l0.002,22.402h-27.48v-22.402h-4.738c-0.003,0-0.006,0-0.01,0C276.015,324.742,274.252,324.499,272.576,324.043" fill="#ffffff"/></g><g id="change1_3"><path d="M314.799,273.945c-0.002,0-0.003,0-0.004,0h-13.479v10.002h13.479c2.787,0.001,5.262,1.113,7.094,2.938 c1.824,1.832,2.938,4.309,2.939,7.096v10.728c-0.002,2.787-1.115,5.264-2.939,7.096c-1.832,1.823-4.307,2.937-7.094,2.939h-20.357 h-16.6c-2.787-0.003-5.264-1.116-7.096-2.939c-1.824-1.832-2.937-4.309-2.939-7.095v-10.727c0.003-2.788,1.115-5.265,2.939-7.097 c1.832-1.823,4.309-2.937,7.096-2.938h13.479v-10.002h-13.479c-5.518-0.001-10.557,2.252-14.166,5.869 c-3.619,3.61-5.873,8.65-5.87,14.168h5.001h5h-5h-5.001v10.727c-0.003,5.516,2.251,10.557,5.87,14.166 c2.42,2.426,5.484,4.238,8.904,5.168v-9.3h10v9.999h11.861h15.617v-4.999v-5h10v9.3c3.421-0.93,6.485-2.742,8.906-5.169 c3.617-3.608,5.869-8.649,5.867-14.166V293.98c0.002-5.516-2.25-10.556-5.867-14.166 C325.354,276.198,320.314,273.945,314.799,273.945" fill="#ffffff"/></g><g id="change2_2"><path d="M301.316 273.945L291.316 273.945 291.316 283.947 301.316 283.947 301.316 273.945" fill="#ffffff"/></g><g id="change4_4"><path d="M282.576,314.743h-10v9.3c1.676,0.456,3.438,0.699,5.252,0.699c0.004,0,0.007,0,0.01,0h4.738V314.743 M320.055,314.743h-10v5v4.999h4.74c1.816,0.002,3.581-0.242,5.26-0.699V314.743" fill="#ffffff"/></g><g id="change3_5"><path d="M305.045 327.934L298.1 327.934 298.1 343.572 305.045 343.572 305.045 327.934" fill="#ffffff"/></g><g id="change3_6"><path d="M294.532 327.934L287.588 327.934 287.588 343.572 294.532 343.572 294.532 327.934" fill="#ffffff"/></g></svg>