<?xml version="1.0" encoding="UTF-8" standalone="no"?><svg xmlns="http://www.w3.org/2000/svg" xmlns:xlink="http://www.w3.org/1999/xlink" fill="#000000" height="288.8" preserveAspectRatio="xMidYMid meet" version="1" viewBox="67.2 68.2 290.8 288.8" width="290.8" zoomAndPan="magnify"><g id="change1_1"><path d="M135.857,146.794H107.2c-11.031-0.002-21.062,4.484-28.285,11.715c-7.23,7.224-11.718,17.255-11.715,28.285 v60.551c-0.002,11.029,4.485,21.062,11.715,28.284c7.221,7.229,17.249,11.715,28.275,11.715c0.003,0,0.007,0,0.01,0h43.896v-10 H107.2c-8.301-0.002-15.769-3.349-21.213-8.786c-5.437-5.445-8.785-12.914-8.787-21.213v-60.551 c0.002-8.301,3.351-15.769,8.787-21.213c5.445-5.438,12.913-8.785,21.213-8.787h28.657V146.794 M279.343,146.794H145.857v10h133.486 V146.794 M318.01,146.794c-0.003,0-0.007,0-0.01,0h-28.657v10H318c8.3,0.002,15.769,3.349,21.213,8.787 c5.437,5.445,8.784,12.913,8.787,21.213v60.551c-0.003,8.299-3.351,15.769-8.787,21.213c-5.445,5.437-12.913,8.783-21.213,8.786 h-43.896v10H318c11.03,0.002,21.062-4.484,28.285-11.715c7.23-7.222,11.718-17.254,11.716-28.284v-60.551 c0.002-11.03-4.485-21.062-11.716-28.285C339.064,151.281,329.037,146.794,318.01,146.794" fill="#ffffff"/></g><g id="change1_2"><path d="M145.857,156.794h-10V157h10V156.794 M289.343,156.794h-10V157h10V156.794 M284.344,68.194H140.857 c-1.318,0-2.605,0.533-3.537,1.464c-0.931,0.931-1.464,2.219-1.464,3.537v73.6h10V78.193h133.486v68.601h10v-73.6 c0-1.316-0.533-2.605-1.464-3.537C286.948,68.727,285.66,68.194,284.344,68.194" fill="#ffffff"/></g><g id="change2_1"><path d="M145.857,146.794h-10v10h10V146.794 M289.343,146.794h-10v10h10V146.794" fill="#ffffff"/></g><g id="change1_3"><path d="M329.089,186.746L329.089,186.746L329.089,186.746 M311.595,169.245c-0.002,0-0.003,0-0.005,0 c-4.817-0.001-9.223,1.967-12.374,5.126c-3.159,3.151-5.129,7.557-5.126,12.374c-0.003,4.816,1.967,9.223,5.126,12.375 c3.148,3.157,7.551,5.125,12.364,5.125c0.003,0,0.006,0,0.01,0c4.816,0.002,9.223-1.966,12.375-5.125 c3.159-3.151,5.127-7.559,5.125-12.375h-5h-5c-0.003,2.086-0.831,3.93-2.197,5.303c-1.373,1.366-3.216,2.194-5.303,2.197 c-2.087-0.002-3.93-0.831-5.303-2.197c-1.366-1.373-2.195-3.216-2.197-5.303c0.001-2.087,0.831-3.93,2.197-5.303 c1.373-1.366,3.215-2.195,5.303-2.197c2.086,0.001,3.93,0.831,5.303,2.197c1.366,1.373,2.194,3.215,2.197,5.303h5h5l0,0 c0.002-4.817-1.966-9.223-5.125-12.374C320.814,171.213,316.409,169.245,311.595,169.245" fill="#ffffff"/></g><g id="change1_4"><path d="M290.089,186.746L290.089,186.746L290.089,186.746 M277.107,173.752c-0.003,0-0.006,0-0.01,0 c-3.573-0.002-6.853,1.463-9.188,3.806c-2.345,2.336-3.809,5.616-3.806,9.188c-0.003,3.572,1.461,6.852,3.806,9.188 c2.333,2.342,5.611,3.806,9.183,3.806c0.002,0,0.003,0,0.005,0c3.572,0.001,6.852-1.463,9.187-3.806 c2.345-2.336,3.809-5.616,3.806-9.188h-4.999h-5c-0.003,0.842-0.327,1.559-0.876,2.116c-0.558,0.55-1.274,0.875-2.116,0.876 c-0.843-0.001-1.56-0.327-2.117-0.876c-0.55-0.558-0.874-1.274-0.876-2.116c0.003-0.842,0.327-1.558,0.876-2.116 c0.558-0.549,1.274-0.875,2.117-0.877c0.842,0.003,1.559,0.328,2.116,0.877c0.55,0.558,0.874,1.274,0.876,2.116h5h4.999l0,0 c0.003-3.572-1.461-6.852-3.806-9.188C283.951,175.217,280.675,173.752,277.107,173.752" fill="#ffffff"/></g><g id="change3_1"><path d="M274.104,243.059h-10v103.948H161.096V243.059h-10v34.286h9.974v10h-9.974v64.661 c0,1.316,0.533,2.604,1.464,3.537c0.931,0.931,2.22,1.464,3.537,1.464h113.006c1.318,0,2.605-0.533,3.537-1.464 c0.931-0.932,1.464-2.22,1.464-3.537v-64.661h-9.367v-10h9.367V243.059" fill="#ffffff"/></g><g id="change4_1"><path d="M161.07,277.345h-9.974v10h9.974V277.345 M274.104,277.345h-9.367v10h9.367V277.345" fill="#ffffff"/></g><g id="change1_5"><path d="M284.344 233.058L140.857 233.058 140.857 243.059 151.097 243.059 151.097 233.333 161.096 233.333 161.096 243.059 264.104 243.059 264.104 233.333 274.104 233.333 274.104 243.059 284.344 243.059 284.344 233.058" fill="#ffffff"/></g><g id="change4_2"><path d="M161.096,233.333h-10v9.725h10V233.333 M274.104,233.333h-10v9.725h10V233.333" fill="#ffffff"/></g><g id="change3_2"><path d="M246.1 255.032L179.1 255.032 179.1 265.032 246.1 265.032 246.1 255.032" fill="#ffffff"/></g><g id="change3_3"><path d="M246.1 272.533L179.1 272.533 179.1 282.533 246.1 282.533 246.1 272.533" fill="#ffffff"/></g><g id="change3_4"><path d="M246.1 290.032L179.1 290.032 179.1 300.033 246.1 300.033 246.1 290.032" fill="#ffffff"/></g><g id="change3_5"><path d="M246.1 307.533L179.1 307.533 179.1 317.533 246.1 317.533 246.1 307.533" fill="#ffffff"/></g><g id="change3_6"><path d="M246.1 325.033L179.1 325.033 179.1 335.033 246.1 335.033 246.1 325.033" fill="#ffffff"/></g></svg>