<?xml version="1.0" encoding="UTF-8" standalone="no"?><svg xmlns="http://www.w3.org/2000/svg" xmlns:xlink="http://www.w3.org/1999/xlink" fill="#000000" height="290.8" preserveAspectRatio="xMidYMid meet" version="1" viewBox="67.2 67.2 290.8 290.8" width="290.8" zoomAndPan="magnify"><g id="change1_1"><path d="M257.933,288.863c-0.091,0.001-0.182,0.001-0.273,0.001h-9.727v12.511c1.595-0.441,3.272-0.677,5-0.676 c0.003,0,0.007,0,0.01,0c1.724,0,3.398,0.236,4.989,0.676V288.863" fill="#ffffff"/></g><g id="change1_2"><path d="M252.944,300.699c-0.003,0-0.007,0-0.01,0c-1.728-0.001-3.406,0.235-5,0.676 c-3.166,0.876-6.002,2.562-8.246,4.811c-3.383,3.374-5.49,8.09-5.487,13.248h4.999h5c0.003-2.429,0.969-4.581,2.558-6.176 c1.597-1.588,3.749-2.556,6.176-2.559c2.426,0.003,4.578,0.971,6.175,2.558c1.588,1.597,2.555,3.749,2.558,6.178 c-0.003,2.426-0.97,4.578-2.558,6.173c-1.597,1.588-3.749,2.557-6.175,2.559c-2.428-0.002-4.58-0.971-6.176-2.559 c-1.588-1.595-2.555-3.747-2.558-6.173h-5H234.2c-0.003,5.156,2.105,9.871,5.487,13.245c3.372,3.379,8.083,5.487,13.237,5.487 c0.003,0,0.006,0,0.01,0c5.157,0.002,9.872-2.105,13.247-5.487c3.382-3.374,5.488-8.089,5.486-13.245 c0.002-5.158-2.104-9.874-5.486-13.248c-2.245-2.249-5.082-3.935-8.247-4.811C256.342,300.935,254.667,300.699,252.944,300.699" fill="#ffffff"/></g><g id="change2_1"><path d="M167.267,288.863v32.346c1.595-0.441,3.273-0.677,5-0.676c0.004,0,0.007,0,0.01,0 c1.724,0,3.398,0.236,4.989,0.676v-32.345h-9.725c-0.004,0-0.006,0-0.01,0C167.443,288.865,167.355,288.864,167.267,288.863" fill="#ffffff"/></g><g id="change2_2"><path d="M172.277,320.533c-0.003,0-0.006,0-0.01,0c-1.728-0.001-3.406,0.235-5,0.676 c-3.166,0.876-6.002,2.562-8.246,4.811c-3.382,3.374-5.49,8.09-5.487,13.248h5h5c0.002-2.429,0.97-4.581,2.559-6.178 c1.596-1.587,3.747-2.555,6.175-2.558c2.428,0.003,4.58,0.971,6.175,2.558c1.589,1.597,2.557,3.749,2.56,6.178 c-0.003,2.426-0.971,4.578-2.56,6.173c-1.595,1.589-3.747,2.557-6.175,2.559c-2.428-0.002-4.579-0.97-6.176-2.559 c-1.589-1.595-2.555-3.747-2.558-6.173h-5h-5c-0.003,5.156,2.105,9.871,5.487,13.245c3.372,3.38,8.083,5.487,13.236,5.487 c0.003,0,0.006,0,0.01,0c5.157,0.002,9.873-2.105,13.247-5.487c3.382-3.374,5.489-8.089,5.487-13.245 c0.001-5.158-2.105-9.874-5.487-13.248c-2.244-2.25-5.082-3.935-8.247-4.811C175.675,320.769,174.001,320.533,172.277,320.533" fill="#ffffff"/></g><g id="change2_3"><path d="M217.6,288.865h-10v26.245c1.594-0.441,3.272-0.677,5-0.676c0.003,0,0.006,0,0.01,0 c1.724,0,3.399,0.236,4.99,0.676V288.865" fill="#ffffff"/></g><g id="change2_4"><path d="M212.61,314.434c-0.003,0-0.007,0-0.01,0c-1.728-0.001-3.405,0.235-5,0.676 c-3.166,0.876-6.002,2.562-8.247,4.811c-3.382,3.374-5.489,8.088-5.487,13.245h5h5c0.001-2.426,0.969-4.578,2.558-6.175 c1.597-1.587,3.749-2.555,6.175-2.558c2.428,0.003,4.579,0.971,6.176,2.558c1.589,1.597,2.555,3.749,2.558,6.175 c-0.002,2.429-0.97,4.581-2.558,6.176c-1.597,1.588-3.748,2.557-6.176,2.559c-2.427-0.002-4.579-0.971-6.175-2.559 c-1.588-1.595-2.556-3.748-2.559-6.176h-4.999h-5c-0.001,5.158,2.105,9.874,5.487,13.248c3.373,3.38,8.084,5.487,13.236,5.487 c0.003,0,0.006,0,0.01,0c5.157,0.002,9.872-2.105,13.246-5.487c3.383-3.375,5.49-8.09,5.487-13.248 c0.003-5.156-2.105-9.871-5.487-13.245c-2.244-2.249-5.081-3.935-8.246-4.811C216.009,314.669,214.334,314.434,212.61,314.434" fill="#ffffff"/></g><g id="change1_3"><path d="M167.267,103.991v32.346c0.092-0.001,0.183-0.001,0.275-0.001h9.725v-32.345 c-1.594,0.441-3.272,0.677-5,0.676c-0.003,0-0.006,0-0.01,0C170.533,104.667,168.858,104.431,167.267,103.991" fill="#ffffff"/></g><g id="change1_4"><path d="M172.277,67.2c-0.003,0-0.006,0-0.01,0c-5.158-0.002-9.873,2.105-13.246,5.487 c-3.382,3.374-5.49,8.089-5.487,13.247c-0.003,5.158,2.105,9.873,5.487,13.247c2.243,2.249,5.08,3.935,8.246,4.811 c1.592,0.44,3.266,0.676,4.991,0.676c0.003,0,0.006,0,0.01,0c1.728,0.001,3.405-0.235,5-0.676c3.166-0.876,6.002-2.562,8.247-4.811 c3.382-3.374,5.489-8.089,5.487-13.247h-5H181c-0.001,2.428-0.969,4.58-2.558,6.175c-1.597,1.588-3.748,2.556-6.175,2.559 c-2.428-0.003-4.579-0.971-6.176-2.558c-1.589-1.597-2.555-3.749-2.558-6.176c0.002-2.428,0.969-4.58,2.558-6.175 c1.597-1.588,3.748-2.557,6.176-2.559c2.427,0.002,4.578,0.971,6.175,2.559c1.589,1.595,2.557,3.747,2.558,6.175H186h5l0,0 c0.001-5.158-2.105-9.873-5.487-13.247C182.141,69.308,177.43,67.2,172.277,67.2" fill="#ffffff"/></g><g id="change2_5"><path d="M247.933,103.991v32.345h9.727c0.003,0,0.006,0,0.01,0c0.088,0,0.176,0,0.264,0.001v-32.346 c-1.595,0.441-3.272,0.677-5,0.676c-0.003,0-0.006,0-0.01,0C251.199,104.667,249.525,104.431,247.933,103.991" fill="#ffffff"/></g><g id="change2_6"><path d="M271.666,85.934L271.666,85.934L271.666,85.934 M252.944,67.2c-0.003,0-0.007,0-0.01,0 c-5.158-0.002-9.873,2.105-13.248,5.487c-3.382,3.374-5.489,8.089-5.486,13.247c-0.003,5.158,2.104,9.873,5.486,13.247 c2.244,2.249,5.082,3.935,8.247,4.811c1.592,0.44,3.266,0.676,4.991,0.676c0.003,0,0.006,0,0.01,0c1.727,0.001,3.405-0.235,5-0.676 c3.165-0.876,6.002-2.562,8.246-4.811c3.383-3.374,5.49-8.089,5.487-13.247h-5h-5c-0.003,2.428-0.97,4.58-2.558,6.175 c-1.597,1.588-3.749,2.556-6.175,2.559c-2.428-0.003-4.58-0.971-6.176-2.558c-1.588-1.597-2.555-3.749-2.558-6.176 c0.003-2.428,0.969-4.58,2.558-6.175c1.597-1.588,3.749-2.557,6.176-2.559c2.426,0.002,4.578,0.971,6.175,2.559 c1.588,1.595,2.555,3.747,2.558,6.175h5h5l0,0c0.002-5.158-2.104-9.873-5.487-13.247C262.807,69.308,258.096,67.2,252.944,67.2" fill="#ffffff"/></g><g id="change2_7"><path d="M217.6,123.825c-1.595,0.441-3.272,0.677-5,0.677c-0.004,0-0.007,0-0.01,0c-1.724,0-3.398-0.236-4.989-0.676 v12.51h10V123.825" fill="#ffffff"/></g><g id="change2_8"><path d="M231.333,105.768L231.333,105.768L231.333,105.768 M212.61,87.034c-0.003,0-0.007,0-0.01,0 c-5.157-0.003-9.873,2.105-13.247,5.487c-3.382,3.374-5.489,8.089-5.487,13.247c-0.001,5.158,2.105,9.873,5.487,13.247 c2.244,2.249,5.082,3.935,8.247,4.811c1.591,0.44,3.266,0.676,4.989,0.676c0.003,0,0.006,0,0.01,0c1.728,0,3.405-0.235,5-0.677 c3.166-0.876,6.002-2.562,8.246-4.811c3.382-3.374,5.49-8.089,5.487-13.247h-5h-5c-0.002,2.428-0.97,4.58-2.559,6.175 c-1.596,1.588-3.747,2.556-6.175,2.559c-2.428-0.003-4.58-0.971-6.175-2.559c-1.588-1.595-2.556-3.747-2.558-6.175 c0.001-2.428,0.969-4.58,2.558-6.176c1.595-1.587,3.747-2.555,6.175-2.558c2.428,0.003,4.579,0.971,6.175,2.559 c1.588,1.595,2.556,3.747,2.559,6.175h5h5l0,0c0.003-5.158-2.105-9.873-5.487-13.247C222.475,89.142,217.764,87.034,212.61,87.034" fill="#ffffff"/></g><g id="change1_5"><path d="M136.335,247.934h-12.511c0.441,1.595,0.677,3.272,0.676,5c0.001,1.727-0.235,3.405-0.676,4.999h12.512 c-0.001-0.091-0.001-0.182-0.001-0.273V247.934" fill="#ffffff"/></g><g id="change1_6"><path d="M105.767,261.667c-2.428-0.002-4.579-0.969-6.175-2.558c-1.588-1.595-2.556-3.747-2.558-6.175 c0.001-2.428,0.969-4.58,2.558-6.176c1.596-1.588,3.747-2.555,6.175-2.558l0,0c2.428,0.003,4.58,0.969,6.176,2.558 c1.587,1.597,2.555,3.749,2.558,6.176c-0.003,2.428-0.971,4.58-2.558,6.175C110.347,260.697,108.195,261.664,105.767,261.667 M105.777,234.2c-0.003,0-0.006,0-0.01,0l0,0c-5.158-0.002-9.873,2.105-13.246,5.487c-3.382,3.374-5.489,8.089-5.487,13.247 c-0.001,5.156,2.105,9.871,5.487,13.247c3.373,3.38,8.087,5.487,13.241,5.487c0.002,0,0.003,0,0.005,0 c5.158,0.001,9.873-2.105,13.247-5.487c2.25-2.245,3.936-5.082,4.811-8.248c0.441-1.594,0.677-3.272,0.676-4.999 c0.001-1.728-0.235-3.406-0.676-5c-0.875-3.166-2.561-6.002-4.81-8.246C115.642,236.308,110.931,234.2,105.777,234.2" fill="#ffffff"/></g><g id="change2_9"><path d="M136.336,167.267h-32.346c0.441,1.595,0.677,3.273,0.676,5c0,1.728-0.235,3.406-0.676,5h32.345v-9.728 C136.335,167.449,136.335,167.358,136.336,167.267" fill="#ffffff"/></g><g id="change2_10"><path d="M85.933,181.001c-2.428-0.003-4.58-0.971-6.175-2.559c-1.588-1.595-2.556-3.747-2.558-6.175 c0.001-2.426,0.969-4.58,2.558-6.175c1.595-1.588,3.749-2.556,6.175-2.559l0,0c2.428,0.003,4.58,0.971,6.176,2.559 c1.588,1.595,2.555,3.749,2.558,6.175c-0.002,2.428-0.969,4.58-2.558,6.175C90.513,180.031,88.361,180.999,85.933,181.001 M85.943,153.534c-0.003,0-0.007,0-0.01,0l0,0c-5.158-0.003-9.873,2.105-13.246,5.487c-3.382,3.375-5.489,8.09-5.487,13.247 c-0.001,5.158,2.105,9.873,5.487,13.247c3.371,3.379,8.084,5.487,13.236,5.487c0.003,0,0.006,0,0.01,0 c5.158,0.002,9.873-2.105,13.247-5.487c2.25-2.244,3.935-5.081,4.811-8.246c0.441-1.595,0.677-3.272,0.676-5 c0-1.728-0.235-3.406-0.676-5c-0.876-3.165-2.562-6.001-4.811-8.246C95.808,155.642,91.097,153.534,85.943,153.534" fill="#ffffff"/></g><g id="change2_11"><path d="M136.335,207.601h-26.244c0.441,1.594,0.678,3.272,0.677,4.999c0.001,1.728-0.235,3.406-0.677,5h26.244 V207.601" fill="#ffffff"/></g><g id="change2_12"><path d="M92.034,221.334c-2.428-0.003-4.58-0.969-6.176-2.558c-1.587-1.597-2.555-3.749-2.558-6.176 c0.003-2.426,0.971-4.578,2.558-6.175c1.597-1.588,3.749-2.555,6.176-2.558l0,0c2.428,0.001,4.58,0.969,6.175,2.558 c1.588,1.597,2.556,3.749,2.559,6.175c-0.003,2.428-0.971,4.58-2.559,6.176C96.614,220.365,94.462,221.331,92.034,221.334 M92.039,193.867c-0.001,0-0.003,0-0.005,0l0,0c-5.158-0.001-9.873,2.105-13.247,5.488c-3.383,3.374-5.49,8.089-5.487,13.245 c-0.002,5.158,2.104,9.873,5.487,13.247c3.372,3.381,8.083,5.487,13.236,5.487c0.004,0,0.007,0,0.01,0 c5.158,0.002,9.873-2.104,13.247-5.487c2.249-2.244,3.935-5.081,4.811-8.246c0.441-1.595,0.678-3.272,0.677-5 c0.001-1.727-0.235-3.405-0.677-4.999c-0.876-3.166-2.562-6.002-4.811-8.246C101.908,195.973,97.195,193.867,92.039,193.867" fill="#ffffff"/></g><g id="change1_7"><path d="M321.209,167.267h-32.346c0,0.091,0.001,0.182,0.001,0.273v9.728h32.345c-0.441-1.595-0.678-3.272-0.677-5 C320.532,170.54,320.768,168.862,321.209,167.267" fill="#ffffff"/></g><g id="change1_8"><path d="M339.266,181.001L339.266,181.001c-2.428-0.003-4.579-0.971-6.175-2.559 c-1.588-1.595-2.556-3.749-2.559-6.175c0.002-2.428,0.97-4.58,2.558-6.176c1.597-1.587,3.748-2.555,6.176-2.558 c2.428,0.003,4.58,0.971,6.175,2.558c1.588,1.597,2.555,3.749,2.558,6.176c-0.003,2.426-0.969,4.58-2.558,6.175 C343.846,180.031,341.694,180.999,339.266,181.001 M339.276,153.534c-0.003,0-0.006,0-0.01,0c-5.157-0.003-9.872,2.105-13.246,5.487 c-2.249,2.244-3.935,5.081-4.811,8.246c-0.442,1.595-0.678,3.272-0.677,5c-0.001,1.728,0.235,3.406,0.677,5 c0.876,3.165,2.562,6.002,4.811,8.246c3.372,3.379,8.083,5.487,13.236,5.487c0.003,0,0.007,0,0.01,0l0,0 c5.158,0.002,9.873-2.105,13.247-5.487c3.382-3.375,5.488-8.09,5.487-13.247c0.001-5.158-2.105-9.873-5.487-13.247 C349.141,155.642,344.43,153.534,339.276,153.534" fill="#ffffff"/></g><g id="change2_13"><path d="M321.209,247.934h-32.345v9.726l0,0c0,0.091,0,0.182-0.001,0.273h32.346 c-0.441-1.594-0.677-3.272-0.676-4.999C320.532,251.206,320.768,249.528,321.209,247.934" fill="#ffffff"/></g><g id="change2_14"><path d="M339.266,261.667L339.266,261.667c-2.428-0.002-4.579-0.969-6.175-2.558 c-1.588-1.597-2.556-3.749-2.559-6.175c0.002-2.428,0.97-4.58,2.558-6.176c1.597-1.588,3.748-2.555,6.176-2.558 c2.428,0.003,4.58,0.969,6.175,2.558c1.588,1.597,2.555,3.749,2.558,6.176c-0.003,2.426-0.969,4.578-2.558,6.175 C343.846,260.697,341.694,261.664,339.266,261.667 M339.276,234.2c-0.003,0-0.006,0-0.01,0c-5.157-0.002-9.872,2.104-13.246,5.487 c-2.249,2.244-3.935,5.081-4.811,8.246c-0.442,1.595-0.678,3.272-0.677,5c-0.001,1.727,0.235,3.405,0.676,4.999 c0.876,3.166,2.562,6.002,4.811,8.246c3.373,3.382,8.086,5.488,13.241,5.488c0.002,0,0.003,0,0.005,0l0,0 c5.158,0.001,9.873-2.105,13.247-5.488c3.382-3.374,5.488-8.089,5.487-13.245c0.001-5.158-2.105-9.873-5.487-13.247 C349.141,236.307,344.43,234.2,339.276,234.2" fill="#ffffff"/></g><g id="change2_15"><path d="M301.375,207.601h-12.51v10h12.51c-0.441-1.595-0.677-3.272-0.676-5 C300.698,210.873,300.934,209.195,301.375,207.601" fill="#ffffff"/></g><g id="change2_16"><path d="M319.432,221.334L319.432,221.334c-2.428-0.003-4.579-0.969-6.176-2.558 c-1.589-1.597-2.555-3.749-2.558-6.176c0.002-2.428,0.969-4.58,2.558-6.175c1.597-1.588,3.748-2.555,6.176-2.558 c2.428,0.002,4.58,0.969,6.175,2.558c1.589,1.595,2.557,3.747,2.558,6.175c-0.001,2.428-0.969,4.58-2.558,6.176 C324.012,220.365,321.86,221.331,319.432,221.334 M319.438,193.867c-0.002,0-0.003,0-0.005,0c-5.158-0.001-9.873,2.105-13.246,5.487 c-2.25,2.245-3.936,5.082-4.812,8.248c-0.441,1.594-0.677,3.272-0.676,4.999c-0.001,1.728,0.235,3.406,0.676,5 c0.876,3.166,2.562,6.002,4.812,8.246c3.372,3.379,8.083,5.487,13.236,5.487c0.003,0,0.006,0,0.01,0l0,0 c5.158,0.002,9.873-2.105,13.247-5.487c3.382-3.374,5.489-8.089,5.487-13.247c0.001-5.156-2.105-9.871-5.487-13.247 C329.306,195.973,324.593,193.867,319.438,193.867" fill="#ffffff"/></g><g id="change2_17"><path d="M167.267,136.337c-8.494,0.071-16.221,3.559-21.792,9.139c-5.579,5.571-9.068,13.298-9.139,21.792h9.999 v10.001h-10v30.333h10v10h-10v30.333h10v10h-9.999c0.071,8.494,3.56,16.221,9.139,21.792c5.57,5.58,13.297,9.068,21.792,9.139 v-9.998h10v10h30.334v-10h10v10h30.333v-10h10v9.998c8.493-0.07,16.221-3.558,21.792-9.139c5.579-5.571,9.068-13.298,9.139-21.792 h-9.999v-0.273c-0.003,5.872-2.366,11.141-6.21,14.995c-3.854,3.845-9.124,6.208-14.995,6.21h-90.118 c-5.873-0.003-11.143-2.365-14.996-6.21c-3.846-3.854-6.208-9.124-6.21-14.995v-90.119c0.002-5.872,2.365-11.141,6.21-14.995 c3.854-3.845,9.124-6.208,14.996-6.21h-0.275V136.337 M257.933,136.337v9.999h-0.273c5.871,0.002,11.141,2.365,14.995,6.21 c3.844,3.854,6.208,9.124,6.21,14.995v-0.273h9.999c-0.071-8.494-3.56-16.221-9.139-21.792 C274.154,139.895,266.426,136.408,257.933,136.337 M207.601,136.335h-30.334v10h30.334V136.335 M247.933,136.335H217.6v10h30.333 V136.335" fill="#ffffff"/></g><g id="change3_1"><path d="M257.933,278.865h-10v10h9.727c0.091,0,0.182,0,0.273-0.001V278.865" fill="#ffffff"/></g><g id="change4_1"><path d="M177.267,278.865h-10v9.998c0.088,0.001,0.177,0.001,0.265,0.001c0.004,0,0.006,0,0.01,0h9.725V278.865" fill="#ffffff"/></g><g id="change4_2"><path d="M217.6 278.865L207.601 278.865 207.601 288.865 217.6 288.865 217.6 278.865" fill="#ffffff"/></g><g id="change3_2"><path d="M177.267,136.335h-9.725c-0.092,0-0.183,0-0.275,0.001v9.999h0.275l0,0h9.725V136.335" fill="#ffffff"/></g><g id="change4_3"><path d="M257.669,136.335c-0.003,0-0.006,0-0.01,0h-9.727v10h9.727l0,0h0.273v-9.999 C257.845,136.336,257.757,136.335,257.669,136.335" fill="#ffffff"/></g><g id="change4_4"><path d="M217.6 136.335L207.601 136.335 207.601 146.335 217.6 146.335 217.6 136.335" fill="#ffffff"/></g><g id="change2_18"><path d="M288.864,217.601h-10v30.333h10V217.601 M288.864,177.268h-10v30.333h10V177.268" fill="#ffffff"/></g><g id="change3_3"><path d="M146.335,247.934h-10v9.726c0,0.091,0,0.182,0.001,0.273h9.999V247.934" fill="#ffffff"/></g><g id="change4_5"><path d="M146.335,167.267h-9.999c-0.001,0.091-0.001,0.182-0.001,0.273v9.728h10V167.267" fill="#ffffff"/></g><g id="change4_6"><path d="M146.335 207.601L136.335 207.601 136.335 217.601 146.335 217.601 146.335 207.601" fill="#ffffff"/></g><g id="change3_4"><path d="M288.863,167.267h-9.999v0.273l0,0v9.728h10v-9.728C288.865,167.449,288.864,167.358,288.863,167.267" fill="#ffffff"/></g><g id="change4_7"><path d="M288.864,257.66h-4.999h-5l0,0v0.273h9.999C288.864,257.842,288.865,257.751,288.864,257.66 M288.864,247.934h-10v9.726h5h4.999l0,0l0,0V247.934" fill="#ffffff"/></g><g id="change4_8"><path d="M288.864 207.601L278.865 207.601 278.865 217.601 288.864 217.601 288.864 207.601" fill="#ffffff"/></g><g id="change1_9"><path d="M241.971,161.165c-0.004,0-0.006,0-0.01,0h-58.72c-6.081-0.002-11.632,2.479-15.611,6.466 c-3.986,3.978-6.467,9.529-6.466,15.61v58.72c-0.001,6.081,2.48,11.631,6.466,15.61c3.977,3.985,9.525,6.466,15.602,6.466 c0.003,0,0.006,0,0.01,0h58.72c6.081,0.002,11.631-2.479,15.61-6.466c3.987-3.979,6.467-9.529,6.466-15.61h-5h-5 c-0.001,3.351-1.344,6.337-3.537,8.54c-2.201,2.192-5.188,3.534-8.539,3.536h-58.72c-3.352-0.002-6.339-1.344-8.54-3.538 c-2.193-2.201-3.535-5.188-3.537-8.539v-58.72c0.001-3.351,1.344-6.339,3.537-8.54c2.201-2.192,5.188-3.534,8.54-3.536h58.72 c3.351,0.002,6.338,1.344,8.539,3.536c2.193,2.201,3.535,5.189,3.537,8.54v58.72h5h5l0,0l0,0v-58.72 c0.001-6.081-2.479-11.631-6.466-15.61C253.594,163.646,248.047,161.165,241.971,161.165" fill="#ffffff"/></g></svg>